<svg version="1.1" id="Layer_1" xmlns="http://www.w3.org/2000/svg" xmlns:xlink="http://www.w3.org/1999/xlink" x="0px" y="0px"
	 width="100%" viewBox="0 0 1024 1024" enable-background="new 0 0 1024 1024" xml:space="preserve">
<path fill="#FFFFFF" opacity="1.000000" stroke="none" 
	d="
M544.000000,1025.000000 
	C364.166656,1025.000000 184.833313,1024.986450 5.500056,1025.093872 
	C1.750706,1025.096069 0.905801,1024.249146 0.906913,1020.500000 
	C1.007246,682.166687 1.007246,343.833344 0.906913,5.500028 
	C0.905801,1.750903 1.750902,0.905800 5.500028,0.906912 
	C343.833344,1.007255 682.166687,1.007255 1020.500000,0.906912 
	C1024.249146,0.905800 1025.094360,1.750902 1025.093262,5.500027 
	C1024.992920,343.833344 1024.992798,682.166687 1025.093140,1020.500000 
	C1025.094238,1024.249146 1024.249390,1025.096680 1020.499939,1025.093994 
	C861.833313,1024.984741 703.166687,1025.000000 544.000000,1025.000000 
z"/>
<path fill="#020202" opacity="1.000000" stroke="none" 
	d="
M453.000305,506.338562 
	C522.451660,506.338501 591.403076,506.338501 661.209839,506.338501 
	C658.092773,511.736603 655.341553,516.577209 652.519653,521.376221 
	C625.381470,567.528076 598.274170,613.698303 570.991943,659.764954 
	C569.095032,662.967957 569.763611,664.365112 572.244019,666.601196 
	C620.256897,709.885071 668.218201,753.226501 716.047668,796.712646 
	C719.222900,799.599487 720.421692,799.465271 722.886841,796.078003 
	C746.102905,764.178101 769.530396,732.432129 792.786804,700.561462 
	C794.940369,697.610229 796.141602,696.799927 799.350220,699.650879 
	C816.285583,714.698181 833.436951,729.504211 850.639954,744.246338 
	C853.293457,746.520264 853.445679,747.697266 850.833374,750.228149 
	C822.231934,777.938965 793.695068,805.717896 765.361145,833.701538 
	C762.130005,836.892822 759.561157,836.672668 755.815735,835.460022 
	C697.074219,816.441040 638.294006,797.541626 579.521057,778.619690 
	C558.974304,772.004700 538.407166,765.452454 517.891541,758.742554 
	C514.884949,757.759216 512.225891,757.714661 509.193604,758.694702 
	C429.587280,784.422974 349.949554,810.054077 270.344757,835.787109 
	C267.321198,836.764465 265.383240,836.484131 262.947205,834.171387 
	C233.705383,806.409790 204.338989,778.779175 174.935928,751.187988 
	C172.897629,749.275391 172.173721,748.279907 174.720993,746.020691 
	C191.921570,730.765686 209.031296,715.405823 225.990265,699.883118 
	C228.835953,697.278442 229.968948,697.590027 232.199158,700.541565 
	C256.188080,732.289612 280.384644,763.880737 304.365265,795.635010 
	C306.832550,798.902100 308.066345,799.310730 311.316162,796.355774 
	C358.897888,753.090759 406.601959,709.960022 454.385651,666.917969 
	C457.240143,664.346741 457.671356,662.735779 455.631195,659.287109 
	C426.256073,609.631470 397.064789,559.867065 367.834412,510.125793 
	C367.256744,509.142761 366.740387,508.123688 365.769836,506.338623 
	C395.068817,506.338623 423.784546,506.338623 453.000305,506.338562 
z"/>
<path fill="#020202" opacity="1.000000" stroke="none" 
	d="
M819.000244,366.250122 
	C842.494507,366.249908 865.489197,366.322113 888.482483,366.174194 
	C892.013977,366.151520 893.335693,366.762268 893.322754,370.730682 
	C893.169617,417.718475 893.227539,464.706970 893.197388,511.695251 
	C893.196655,512.767639 893.671509,513.991089 892.804565,514.854004 
	C848.689453,470.674469 804.614746,426.535400 759.992493,381.847961 
	C758.270264,384.283081 757.147705,385.805939 756.091309,387.373383 
	C733.589478,420.760651 711.061401,454.130371 688.657043,487.583008 
	C686.673157,490.545258 685.723267,491.395874 682.666687,488.416321 
	C654.752136,461.204773 626.680298,434.153961 598.544983,407.170288 
	C595.867615,404.602509 595.497131,403.504395 598.849548,401.074646 
	C693.452332,332.508484 787.966125,263.819489 882.519897,195.185577 
	C883.655457,194.361237 884.568970,192.934906 887.045227,193.204361 
	C848.195251,250.830978 809.556824,308.143799 770.383179,366.250549 
	C787.021790,366.250549 802.761047,366.250549 819.000244,366.250122 
z"/>
<path fill="#020202" opacity="1.000000" stroke="none" 
	d="
M300.674072,309.345093 
	C342.973785,340.072632 384.972321,370.606476 427.060516,401.016235 
	C430.134277,403.237122 430.461395,404.320831 427.538452,407.118195 
	C399.374054,434.072784 371.323395,461.147125 343.391724,488.342773 
	C340.515442,491.143280 339.534882,490.853760 337.401459,487.663055 
	C314.931763,454.058258 292.228119,420.609802 269.792542,386.982422 
	C267.144440,383.013367 265.852844,383.057312 262.565613,386.363281 
	C221.094559,428.070496 179.466858,469.621948 137.873047,511.207092 
	C136.502899,512.576965 135.067993,513.881958 133.623199,515.255310 
	C132.267395,513.933655 132.824814,512.543274 132.823914,511.324158 
	C132.789688,464.668549 132.844543,418.012726 132.696274,371.357574 
	C132.683197,367.241760 133.709930,366.139038 137.895920,366.158508 
	C175.386200,366.333008 212.877655,366.255310 250.368774,366.251831 
	C251.806900,366.251678 253.245041,366.251801 255.622452,366.251801 
	C216.411850,308.098267 177.692841,250.673813 138.973831,193.249359 
	C139.211823,192.974991 139.449814,192.700623 139.687805,192.426254 
	C193.256851,231.324478 246.825882,270.222687 300.674072,309.345093 
z"/>
<path fill="#020202" opacity="1.000000" stroke="none" 
	d="
M328.229309,202.876266 
	C372.613739,205.151657 416.522522,207.415436 460.431976,209.665421 
	C465.422333,209.921143 470.417633,210.280014 475.408752,210.252441 
	C478.918732,210.233047 478.885437,211.546036 478.252106,214.484085 
	C471.389954,246.318024 464.642914,278.177246 458.040833,310.066101 
	C457.268463,313.796692 455.915588,313.425446 453.076843,312.326263 
	C410.674103,295.907745 368.230591,279.594604 325.792267,263.268036 
	C267.560516,240.865509 209.323776,218.475983 151.097748,196.058670 
	C149.444687,195.422211 147.491409,195.273972 146.244919,193.388138 
	C206.855408,196.551224 267.304626,199.705902 328.229309,202.876266 
z"/>
<path fill="#020202" opacity="1.000000" stroke="none" 
	d="
M552.692139,237.424957 
	C551.003296,229.539017 549.682251,221.992706 547.735840,214.611328 
	C546.816528,211.125046 547.600525,210.390717 550.943787,210.238388 
	C572.576111,209.252655 594.201843,208.116821 615.828186,207.002060 
	C658.413696,204.806931 700.997498,202.579803 743.583435,200.391861 
	C779.016785,198.571381 814.452209,196.790253 849.886475,194.986938 
	C859.803284,194.482254 869.719299,193.960724 879.771973,193.439865 
	C878.265564,195.441727 875.981689,195.623169 874.023804,196.377670 
	C774.126709,234.874664 674.210144,273.321320 574.352478,311.920380 
	C569.719421,313.711212 568.538330,313.041473 567.557739,308.080811 
	C562.918213,284.609558 557.770325,261.238770 552.692139,237.424957 
z"/>
<path fill="#FCFCFC" opacity="1.000000" stroke="none" 
	d="
M459.221802,552.490479 
	C497.598328,552.490356 535.498901,552.490356 574.368713,552.490356 
	C553.828735,582.032349 533.848267,610.769592 513.469116,640.080261 
	C493.217743,610.963623 473.185638,582.162231 453.128845,553.325317 
	C455.095581,551.961853 456.980621,552.705750 459.221802,552.490479 
z"/>
</svg>